<svg width="21" height="79" viewBox="0 0 21 79" fill="none" xmlns="http://www.w3.org/2000/svg">
<path d="M6.52915 76.712H4.33104L4.2052 68.3649L6.52915 68.2334V76.712Z" fill="#9F616A"/>
<path d="M7.09189 78.8449L0 78.8448V78.753C0.000842348 78.0211 0.291999 77.3193 0.809586 76.8017C1.32717 76.2842 2.02893 75.993 2.7609 75.9922H7.09189V78.8449Z" fill="#2F2E41"/>
<path d="M19.1123 74.1795L17.0972 75.058L13.6462 67.4565L15.7242 66.4075L19.1123 74.1795Z" fill="#9F616A"/>
<path d="M13.9794 78.7438L13.9428 78.6597C13.7979 78.3274 13.7199 77.9697 13.7132 77.6072C13.7066 77.2447 13.7714 76.8844 13.9039 76.547C14.0365 76.2095 14.2342 75.9015 14.4858 75.6404C14.7375 75.3794 15.038 75.1704 15.3704 75.0256L19.3405 73.2948L20.4804 75.9098L13.9794 78.7438Z" fill="#2F2E41"/>
<path d="M10.4352 10.8241C13.0657 10.8241 15.1981 8.69165 15.1981 6.06115C15.1981 3.43066 13.0657 1.29822 10.4352 1.29822C7.80468 1.29822 5.67224 3.43066 5.67224 6.06115C5.67224 8.69165 7.80468 10.8241 10.4352 10.8241Z" fill="#9F616A"/>
<path d="M18.9607 70.1949L12.8046 55.1562L15.7946 41.0848L10.1222 40.777L7.00012 56.5193L14.8712 72.1296L18.9607 70.1949Z" fill="#2F2E41"/>
<path d="M12.2328 38.2706L9.3307 56.2554L8.45809 73.4933L3.44827 73.4493L3.26245 40.4693L12.2328 38.2706Z" fill="#2F2E41"/>
<path d="M16.2142 39.2962L15.9288 41.9012L1.72717 42.5366L2.68875 38.6197L16.2142 39.2962Z" fill="#CBCBCB"/>
<path d="M2.71022 44.2137C2.57446 44.0426 2.47397 43.8463 2.4146 43.6362C2.35523 43.426 2.33814 43.2062 2.36433 42.9894C2.39052 42.7726 2.45946 42.5631 2.56717 42.3731C2.67488 42.1832 2.8192 42.0165 2.99179 41.8827C3.0641 41.8266 3.14082 41.7766 3.2212 41.7329L8.79132 20.8011L12.0931 22.2521L5.54961 42.4796C5.70551 42.8185 5.74226 43.2002 5.65389 43.5626C5.56551 43.925 5.3572 44.247 5.06279 44.4761C4.71505 44.7507 4.27303 44.8773 3.83261 44.8281C3.3922 44.779 2.9889 44.5582 2.71022 44.2137Z" fill="#9F616A"/>
<path d="M6.23074 15.4086L6.88762 14.0517C6.88762 14.0517 10.1224 11.2552 13.5343 12.9315L14.0602 14.4981L16.8429 18.9917L16.2142 39.7471C16.2142 39.7471 4.6047 38.8643 1.72717 39.9161L2.99202 23.4694L6.23074 15.4086Z" fill="#3F3D56"/>
<path d="M6.83492 41.7498L1.93311 40.3787L6.46634 26.2109L6.87679 18.3007C6.9005 17.9012 7.0078 17.5111 7.19175 17.1556C7.37569 16.8001 7.6322 16.4872 7.94467 16.2371C8.32114 15.932 8.75663 15.7081 9.22378 15.5793C9.69094 15.4505 10.1797 15.4197 10.6593 15.4888C12.2611 15.7082 13.4393 16.933 13.4609 18.4012L13.461 18.4084L13.46 18.4155L11.8857 29.5027L11.3809 31.3075L6.83492 41.7498Z" fill="#CBCBCB"/>
<path d="M12.5941 9.79452L13.6783 10.0686L15.3216 8.32164C15.3216 8.32164 18.3417 1.31608 11.6667 0.24405C4.9917 -0.827983 6.44944 1.87849 5.55701 3.57572L8.28454 4.28488L10.7393 6.79422C10.7393 6.79422 12.3412 5.62094 12.8123 6.68512C13.2834 7.74929 12.5941 9.79452 12.5941 9.79452Z" fill="#2F2E41"/>
</svg>
