<svg width="28" height="80" viewBox="0 0 28 80" fill="none" xmlns="http://www.w3.org/2000/svg">
<path d="M13.9411 11.6359L10.2128 12.8582V7.50659H13.596L13.9411 11.6359Z" fill="#F8A8AB"/>
<path d="M10.6746 8.98834C12.7263 8.98834 14.3896 7.32946 14.3896 5.28314C14.3896 3.23681 12.7263 1.57794 10.6746 1.57794C8.62286 1.57794 6.95959 3.23681 6.95959 5.28314C6.95959 7.32946 8.62286 8.98834 10.6746 8.98834Z" fill="#F8A8AB"/>
<path d="M11.695 4.9156C11.0731 4.89731 10.6646 4.27035 10.4228 3.69827C10.181 3.12619 9.93256 2.4693 9.35563 2.23316C8.88375 2.04025 8.05171 3.34571 7.67987 2.99814C7.29136 2.63561 7.66987 0.774692 8.08172 0.440426C8.49357 0.106161 9.05716 0.0413031 9.5874 0.0163579C10.8813 -0.0435106 12.1836 0.0612594 13.4525 0.325679C14.2378 0.488654 15.0449 0.73478 15.6118 1.30021C16.3288 2.01863 16.5122 3.10125 16.5639 4.11403C16.6172 5.15008 16.5572 6.23437 16.052 7.14071C15.5468 8.04706 14.4896 8.71559 13.4758 8.48443C13.3741 7.93563 13.4775 7.37187 13.5175 6.8131C13.5559 6.25599 13.5158 5.65398 13.174 5.20995C12.8322 4.76593 12.1035 4.58965 11.7067 4.98378" fill="#2F2E43"/>
<path d="M16.2655 6.19946C16.6373 5.92839 17.0825 5.70056 17.5394 5.7571C18.0329 5.81697 18.4515 6.22274 18.5782 6.70335C18.7049 7.18396 18.5632 7.7128 18.2564 8.10527C17.9512 8.49775 17.496 8.75718 17.0158 8.88689C16.7373 8.96173 16.4322 8.99332 16.1671 8.88024C15.7769 8.71227 15.5652 8.21503 15.7186 7.81924" fill="#2F2E43"/>
<path d="M12.7106 71.1884H9.21899V76.1292H12.7106V71.1884Z" fill="#F8A8AB"/>
<path d="M5.81746 79.1193C5.45063 79.1193 5.12382 79.111 4.87704 79.0877C3.94996 79.0029 3.06456 78.3194 2.61936 77.9203C2.41927 77.7407 2.3559 77.4547 2.45928 77.2085C2.53432 77.0323 2.68272 76.8992 2.8678 76.8477L5.31891 76.1492L9.28736 73.4784L9.33238 73.5582C9.34906 73.5881 9.73923 74.2883 9.86929 74.7606C9.91931 74.9402 9.90598 75.0899 9.83094 75.2063C9.77925 75.2861 9.70588 75.3327 9.64752 75.3593C9.71922 75.4341 9.94433 75.5871 10.638 75.6969C11.6501 75.8565 11.8635 74.8105 11.8719 74.7672L11.8785 74.7323L11.9085 74.7123C12.3904 74.403 12.6872 74.2617 12.7889 74.2916C12.8523 74.3099 12.959 74.3432 13.2475 77.1919C13.2758 77.2817 13.4776 77.9369 13.3409 78.5639C13.1925 79.2457 10.2044 79.0112 9.60584 78.958C9.58917 78.9597 7.35149 79.1193 5.81913 79.1193H5.81746Z" fill="#2F2E43"/>
<path d="M22.6526 67.3034L19.6899 69.1462L22.3114 73.3385L25.2741 71.4957L22.6526 67.3034Z" fill="#F8A8AB"/>
<path d="M18.7166 78.4425C18.3064 78.4425 17.9295 78.3926 17.6611 78.346C17.3976 78.2995 17.1909 78.0899 17.1475 77.8272C17.1175 77.6376 17.1725 77.4463 17.3026 77.305L19.0117 75.4191L20.9626 71.0587L21.0426 71.1019C21.0726 71.1186 21.7746 71.506 22.1364 71.8386C22.2748 71.965 22.3432 72.0997 22.3399 72.2378C22.3382 72.3342 22.3015 72.4107 22.2648 72.4656C22.3649 72.4922 22.6367 72.5022 23.2836 72.2294C24.2274 71.832 23.8539 70.8309 23.8372 70.7893L23.8239 70.756L23.8389 70.7244C24.084 70.2072 24.2591 69.9312 24.3624 69.9029C24.4275 69.8846 24.5342 69.8563 26.29 72.123C26.3617 72.1829 26.8802 72.6336 27.097 73.2372C27.3321 73.8941 24.6726 75.2728 24.1373 75.5422C24.1207 75.5555 21.3377 77.5727 20.1939 78.1465C19.7404 78.3743 19.2035 78.4441 18.7149 78.4441L18.7166 78.4425Z" fill="#2F2E43"/>
<path d="M15.2817 29.8708H5.5056L4.61853 38.9409L8.50028 72.4539H13.4909L11.495 53.0981L19.5903 70.5731L24.0256 67.4765L17.7044 51.1624C17.7044 51.1624 19.9621 36.9502 18.188 33.4097C16.4138 29.8691 15.2817 29.8708 15.2817 29.8708Z" fill="#2F2E43"/>
<path d="M20.1439 30.4229H4.61853L9.27563 10.4036H16.0403L20.1439 30.4229Z" fill="#23BFEA"/>
<path d="M0.761837 10.0094C0.513392 8.7921 0.968597 7.67955 1.77563 7.52489C2.58266 7.37023 3.43804 8.23333 3.68482 9.45066C3.78987 9.93626 3.77319 10.4385 3.63646 10.9174L4.61857 16.0911L2.08077 16.4919L1.38212 11.3498C1.06697 10.9573 0.855213 10.4984 0.761837 10.0094Z" fill="#F8A8AB"/>
<path d="M15.8752 10.4036H9.9092L5.88738 18.426L4.37004 12.4142L1.03687 12.7667C1.03687 12.7667 1.82556 24.5126 5.27211 24.1151C8.71866 23.7177 16.7573 13.1359 15.8736 10.4019H15.8752V10.4036Z" fill="#23BFEA"/>
<path opacity="0.2" d="M12.9789 60.881L10.6746 59.825L12.0168 46.17L13.3674 46.2382L12.9789 60.881Z" fill="#272223"/>
<path d="M22.5367 40.9116C22.7851 42.1289 22.3299 43.2415 21.5229 43.3961C20.7158 43.5508 19.8605 42.6877 19.6137 41.4703C19.5086 40.9847 19.5253 40.4825 19.662 40.0036L18.6799 34.8299L21.2177 34.4291L21.9164 39.5712C22.2315 39.9637 22.4433 40.4226 22.5367 40.9116Z" fill="#F8A8AB"/>
<path d="M12.4738 10.4036C12.4738 10.4036 15.8636 10.2606 16.0404 10.4036C16.9658 11.1569 22.3932 38.3489 22.3932 38.3489H18.955L12.4738 10.4036Z" fill="#23BFEA"/>
</svg>
