<svg width="27" height="79" viewBox="0 0 27 79" fill="none" xmlns="http://www.w3.org/2000/svg">
<path d="M24.9718 74.1351L22.5761 74.9914L18.1333 66.1577L21.6694 64.894L24.9718 74.1351Z" fill="#FFB8B8"/>
<path d="M18.6876 79L18.6526 78.9023C18.3687 78.1048 18.4126 77.2272 18.7749 76.462C19.1371 75.6968 19.7881 75.1066 20.585 74.8207L25.3033 73.1345L26.4129 76.2392L18.6876 79Z" fill="#2F2E41"/>
<path d="M9.39232 76.5049L6.84802 76.5046L5.6377 66.691L9.39274 66.6912L9.39232 76.5049Z" fill="#FFB8B8"/>
<path d="M10.0412 78.9711L1.8374 78.9708V78.8671C1.83741 78.4477 1.92001 78.0325 2.08049 77.6451C2.24096 77.2577 2.47618 76.9057 2.77269 76.6092C3.06921 76.3127 3.42122 76.0775 3.80863 75.917C4.19604 75.7565 4.61127 75.6739 5.0306 75.674L10.0414 75.6742L10.0412 78.9711Z" fill="#2F2E41"/>
<path d="M15.1906 13.8081L14.0841 11.6216C14.0841 11.6216 9.96201 12.6544 9.58728 15.0434L15.1906 13.8081Z" fill="#FCCCB6"/>
<path d="M19.7562 38.8081L16.7471 55.5999L24.737 69.73L19.9638 71.5978L11.8701 57.9008L10.8325 54.1653L10.2099 73.6731L5.90509 73.5423L3.93127 55.3268L7.09693 38.393L19.7562 38.8081Z" fill="#2F2E41"/>
<path d="M5.38407 41.8374C5.29069 41.4216 5.02283 28.7271 5.02283 28.7271C5.02283 28.7271 9.44849 14.1982 9.48897 14.0788L9.50478 14.0322L12.8648 12.7724C12.9119 12.751 14.0314 12.2522 14.9475 12.6679C15.1825 12.7822 15.3897 12.9464 15.5546 13.1491C15.7195 13.3518 15.8382 13.588 15.9023 13.8413C16.2834 14.1252 19.0299 17.2017 19.0299 21.3746L19.1335 31.2217L21.4361 41.8971L21.3343 41.9188C21.2714 41.9322 18.4647 42.7777 14.0441 42.7777C11.5879 42.7777 5.38407 41.8374 5.38407 41.8374Z" fill="#3F3D56"/>
<path d="M10.6473 10.9333C13.1554 10.9333 15.1887 8.90005 15.1887 6.39193C15.1887 3.88382 13.1554 1.85059 10.6473 1.85059C8.13919 1.85059 6.10596 3.88382 6.10596 6.39193C6.10596 8.90005 8.13919 10.9333 10.6473 10.9333Z" fill="#FFB8B8"/>
<path opacity="0.2" d="M17.117 26.3991L9.17215 37.4845L7.99878 32.3077L17.117 26.3991Z" fill="black"/>
<path d="M3.01614 37.7235C3.30082 37.7122 3.57957 37.6386 3.83274 37.5079C4.08591 37.3773 4.30736 37.1926 4.48146 36.9671C4.65557 36.7416 4.7781 36.4806 4.84045 36.2026C4.90279 35.9246 4.90342 35.6363 4.8423 35.3581L10.7457 31.7368L7.48592 30.2118L2.37968 33.8844C1.919 34.0181 1.52337 34.3161 1.26774 34.722C1.01211 35.1279 0.914245 35.6134 0.992697 36.0866C1.07115 36.5599 1.32045 36.9879 1.69339 37.2896C2.06632 37.5912 2.53697 37.7456 3.01614 37.7235Z" fill="#FFB8B8"/>
<path d="M7.09715 30.2994L5.0752 31.7162L6.79001 34.7613L9.17245 32.7898L7.09715 30.2994Z" fill="#FCCCB6"/>
<path d="M6.03821 30.3887L10.7942 24.876L8.972 17.2724C8.78365 16.4866 8.88773 15.6591 9.2648 14.9444C9.64187 14.2297 10.2662 13.6767 11.0211 13.3886C11.776 13.1005 12.61 13.097 13.3674 13.3788C14.1247 13.6606 14.7536 14.2083 15.1366 14.9198L15.178 14.9968L16.8571 26.2882L8.42009 34.9361L6.03821 30.3887Z" fill="#3F3D56"/>
<path d="M14.5156 10.3348L10.7463 10.4701C10.5165 10.4784 9.89293 7.99874 9.81131 7.48435C9.74679 7.14946 9.56259 6.8495 9.29309 6.64051C9.02359 6.43151 8.68722 6.32776 8.34682 6.34864C8.06466 6.37529 7.35314 5.84814 6.61894 5.22395C5.22505 4.03891 5.29757 1.81322 6.82876 0.811863C6.87061 0.784494 6.91168 0.7595 6.95198 0.736889C7.91794 0.196233 9.04793 0.0146787 10.1548 0.000832277C11.1582 -0.011717 12.1901 0.114575 13.0741 0.589513C14.6589 1.44097 15.5023 3.30166 15.5764 5.09919C15.6505 6.89672 15.0743 8.65438 14.4203 10.3304" fill="#2F2E41"/>
</svg>
