<svg width="701" height="616" viewBox="0 0 701 616" fill="none" xmlns="http://www.w3.org/2000/svg">
<path opacity="0.4" d="M628.098 264.346C640.204 264.346 650.018 254.532 650.018 242.425C650.018 230.319 640.204 220.505 628.098 220.505C615.992 220.505 606.178 230.319 606.178 242.425C606.178 254.532 615.992 264.346 628.098 264.346Z" fill="#FCCCB6"/>
<path opacity="0.4" d="M165.93 143.749C183.187 143.749 197.177 129.759 197.177 112.501C197.177 95.2434 183.187 81.2532 165.93 81.2532C148.672 81.2532 134.682 95.2434 134.682 112.501C134.682 129.759 148.672 143.749 165.93 143.749Z" fill="#FCCCB6"/>
<path opacity="0.4" d="M108.098 149.346C120.204 149.346 130.018 139.532 130.018 127.425C130.018 115.319 120.204 105.505 108.098 105.505C95.9917 105.505 86.1777 115.319 86.1777 127.425C86.1777 139.532 95.9917 149.346 108.098 149.346Z" fill="#FCCCB6"/>
<path d="M646.457 487.549C629.137 506.512 628.508 534.134 628.508 534.134C628.508 534.134 655.96 531.012 673.28 512.05C690.6 493.088 691.229 465.466 691.229 465.466C691.229 465.466 663.777 468.587 646.457 487.549Z" fill="#FAA57D"/>
<path d="M656.241 493.006C651 518.147 628.97 534.821 628.97 534.821C628.97 534.821 615.436 510.733 620.677 485.592C625.918 460.451 647.949 443.777 647.949 443.777C647.949 443.777 661.482 467.865 656.241 493.006Z" fill="#FF9E71"/>
<path d="M633.746 233.581V533.289L533.843 615.818H22.7461V301.631L171.876 233.581H633.746Z" fill="#FCCCB6"/>
<path opacity="0.1" d="M633.746 233.581V234.782L597.882 258.788L533.843 301.631H22.7461L171.876 233.581H633.746Z" fill="black"/>
<path opacity="0.1" d="M633.747 233.581V533.289L533.844 615.818L534.568 300.907L597.883 258.788L633.168 233.581H633.747Z" fill="#FF5100"/>
<path d="M499.094 274.845H187.803L210.969 261.814H509.23L499.094 274.845Z" fill="#2F2E41"/>
<path d="M433.272 227.384C433.272 227.384 433.723 232.351 434.627 232.803C435.53 233.255 442.304 244.545 434.627 246.803C426.949 249.061 422.433 248.158 420.627 249.061C418.82 249.964 387.207 251.771 386.756 246.803C386.304 241.835 402.11 240.932 402.11 240.932C402.11 240.932 416.562 231.448 418.82 226.48C421.078 221.513 433.272 227.384 433.272 227.384Z" fill="#2F2E41"/>
<path d="M491.487 269.199L366.54 8.828L157.619 109.085L234.455 269.199H491.487Z" fill="#F2F2F2"/>
<path d="M324.258 111.03L213.293 164.28L216.598 171.167L327.564 117.917L324.258 111.03Z" fill="#3F3D56"/>
<path d="M353.639 172.252L242.674 225.502L245.979 232.389L356.944 179.139L353.639 172.252Z" fill="#3F3D56"/>
<path d="M373.82 75.0068L346.27 88.2275L359.49 115.778L387.04 102.557L373.82 75.0068Z" fill="#3F3D56"/>
<path d="M403.198 136.229L375.648 149.45L388.869 177L416.419 163.779L403.198 136.229Z" fill="#3F3D56"/>
<path d="M375.718 55.924L364.372 88.206L349.077 82.83L346.984 88.785L368.214 96.246L381.672 58.017L375.718 55.924Z" fill="#57B894"/>
<path d="M405.096 117.146L393.75 149.428L378.456 144.053L376.363 150.007L397.592 157.468L411.051 119.239L405.096 117.146Z" fill="#57B894"/>
</svg>
