<svg width="62" height="74" viewBox="0 0 62 74" fill="none" xmlns="http://www.w3.org/2000/svg">
<path d="M30.4022 61.1151C35.8071 61.1151 40.1886 56.1474 40.1886 50.0195C40.1886 43.8915 35.8071 38.9238 30.4022 38.9238C24.9974 38.9238 20.6158 43.8915 20.6158 50.0195C20.6158 56.1474 24.9974 61.1151 30.4022 61.1151Z" fill="#36334A"/>
<path d="M42.9643 13.0988C40.6126 14.1246 38.0482 14.5686 35.4884 14.3934C36.146 13.9245 36.5679 13.1716 36.738 12.3822C36.9081 11.5928 36.8433 10.7678 36.6676 9.97964C36.6355 9.88965 36.6374 9.79106 36.6729 9.70237C36.7089 9.65783 36.7544 9.62192 36.8061 9.5973C36.8578 9.57268 36.9144 9.55998 36.9717 9.56012C37.963 9.42215 40.8025 8.82316 41.5574 9.67158C41.9151 10.0736 41.7781 10.8545 41.9087 11.3456C41.9627 11.5484 42.6527 13.2352 42.9643 13.0988Z" fill="#FBBEBE"/>
<path opacity="0.1" d="M42.9643 13.0988C40.6126 14.1246 38.0482 14.5686 35.4884 14.3934C36.146 13.9245 36.5679 13.1716 36.738 12.3822C36.9081 11.5928 36.8433 10.7678 36.6676 9.97964C36.6355 9.88965 36.6374 9.79106 36.6729 9.70237C36.7089 9.65783 36.7544 9.62192 36.8061 9.5973C36.8578 9.57268 36.9144 9.55998 36.9717 9.56012C37.963 9.42215 40.8025 8.82316 41.5574 9.67158C41.9151 10.0736 41.7781 10.8545 41.9087 11.3456C41.9627 11.5484 42.6527 13.2352 42.9643 13.0988Z" fill="black"/>
<path d="M34.7016 29.9432L19.9937 30.3956C19.9937 30.3956 6.98292 43.0635 17.731 46.9091C17.731 46.9091 30.968 49.0581 34.1359 46.5697C34.1359 46.5697 38.0957 30.9611 34.7016 29.9432ZM34.0228 34.1281L18.2967 35.146C18.2967 35.146 19.428 31.3004 23.9535 31.3004C28.479 31.3004 33.5702 30.2825 34.0228 32.6577C34.4753 35.0329 34.0228 34.1281 34.0228 34.1281Z" fill="#3F3D56"/>
<path d="M23.1067 27.9139C22.373 27.8016 21.5755 27.7368 20.9329 28.1081C20.719 28.2418 20.5204 28.3985 20.3406 28.5754C20.0822 28.8125 19.8258 29.0518 19.5713 29.2932C19.3852 29.4697 19.1906 29.6644 19.1429 29.9163C19.0446 30.4348 19.6437 30.8523 20.1711 30.8321C20.6986 30.8118 21.1718 30.5221 21.6699 30.3475C22.673 29.996 26.3623 30.5969 26.5639 29.517C26.8202 28.1438 23.9225 28.0436 23.1067 27.9139Z" fill="#FBBEBE"/>
<path d="M29.9822 27.0468C29.0229 27.5338 27.9783 27.8304 26.9062 27.9199C26.7388 27.9227 26.5735 27.9579 26.4195 28.0235C26.3263 28.0809 26.2549 28.1677 26.2167 28.2702C25.8398 29.059 25.607 29.9089 25.5291 30.7796C25.5189 30.8214 25.521 30.8652 25.535 30.9059C25.5491 30.9465 25.5746 30.9822 25.6085 31.0088C25.7116 31.0604 25.8257 31.086 25.941 31.0834C27.7012 31.1951 29.4672 31.2551 31.239 31.2633C31.3172 31.2694 31.3959 31.2587 31.4696 31.232C31.4952 31.2183 31.5178 31.1997 31.536 31.1772C31.5542 31.1546 31.5677 31.1287 31.5757 31.1008C31.9914 30.0674 32.1874 28.9588 32.1512 27.8456C32.1049 26.5345 31.7209 26.124 29.9822 27.0468Z" fill="#D7E5F2"/>
<path opacity="0.1" d="M29.9822 27.0468C29.0229 27.5338 27.9783 27.8304 26.9062 27.9199C26.7388 27.9227 26.5735 27.9579 26.4195 28.0235C26.3263 28.0809 26.2549 28.1677 26.2167 28.2702C25.8398 29.059 25.607 29.9089 25.5291 30.7796C25.5189 30.8214 25.521 30.8652 25.535 30.9059C25.5491 30.9465 25.5746 30.9822 25.6085 31.0088C25.7116 31.0604 25.8257 31.086 25.941 31.0834C27.7012 31.1951 29.4672 31.2551 31.239 31.2633C31.3172 31.2694 31.3959 31.2587 31.4696 31.232C31.4952 31.2183 31.5178 31.1997 31.536 31.1772C31.5542 31.1546 31.5677 31.1287 31.5757 31.1008C31.9914 30.0674 32.1874 28.9588 32.1512 27.8456C32.1049 26.5345 31.7209 26.124 29.9822 27.0468Z" fill="black"/>
<path d="M49.7488 38.8785L30.4023 38.1999L34.9278 19.085C34.9278 19.085 53.0298 17.7277 52.5773 22.3651C52.1247 27.0024 49.7488 38.8785 49.7488 38.8785Z" fill="#36334A"/>
<path d="M31.072 48.016C31.072 48.016 19.428 50.076 15.2419 43.9683C11.0559 37.8606 31.0812 41.1407 31.0812 41.1407L32.7782 45.778L31.072 48.016Z" fill="#36334A"/>
<path d="M27.5739 73.9414C30.5107 73.9414 32.8914 71.5613 32.8914 68.6254C32.8914 65.6895 30.5107 63.3094 27.5739 63.3094C24.6372 63.3094 22.2565 65.6895 22.2565 68.6254C22.2565 71.5613 24.6372 73.9414 27.5739 73.9414Z" fill="#36334A"/>
<path d="M28.083 72.471C29.9263 72.471 31.4206 70.7493 31.4206 68.6254C31.4206 66.5015 29.9263 64.7798 28.083 64.7798C26.2398 64.7798 24.7455 66.5015 24.7455 68.6254C24.7455 70.7493 26.2398 72.471 28.083 72.471Z" fill="#3F3D56"/>
<path d="M56.6501 18.5195C56.6501 18.5195 52.2378 16.0312 52.0115 21.9127L48.278 49.2843H49.8619L54.1611 19.9899C54.1611 19.9899 56.3107 20.3292 56.6501 20.3292C56.9895 20.3292 56.6501 18.5195 56.6501 18.5195Z" fill="#3F3D56"/>
<path d="M61.0468 21.5396C61.0065 21.6849 60.9355 21.8198 60.8387 21.9355C60.7419 22.0511 60.6215 22.1447 60.4855 22.21C60.3496 22.2753 60.2013 22.3108 60.0505 22.3141C59.8997 22.3174 59.75 22.2884 59.6113 22.2292L54.4928 20.0414L55.4213 17.9968L60.4659 20.2938C60.6953 20.3982 60.8798 20.5811 60.9863 20.8095C61.0928 21.0379 61.1143 21.2968 61.0468 21.5396Z" fill="#36334A"/>
<path d="M29.9497 47.3615C29.9497 47.3615 21.8038 46.4566 19.5411 54.2609C17.2783 62.0652 17.5046 68.0598 15.5812 67.6074C13.6579 67.155 9.58496 65.5715 9.58496 65.5715L9.92437 67.9467C9.92437 67.9467 17.052 71.5661 18.1834 67.7205C19.3148 63.8749 19.9936 49.7367 26.4424 50.076C32.8913 50.4153 34.0226 49.7367 34.0226 49.7367L29.9497 47.3615Z" fill="#3F3D56"/>
<path d="M14.45 43.629C14.45 43.629 8.11428 44.4207 5.62526 49.0581C3.13624 53.6954 1.89172 62.0653 1.89172 62.0653H4.26761C4.26761 62.0653 5.62526 45.4387 12.7529 46.3435L14.45 43.629Z" fill="#3F3D56"/>
<path d="M10.1507 69.5302L0.0814493 63.3094C0.0814493 63.3094 -0.484238 61.0473 5.96459 60.1424C5.96459 60.1424 18.1571 64.4053 16.9823 66.0064C15.8075 67.6074 11.8477 70.0957 10.1507 69.5302Z" fill="#36334A"/>
<path d="M25.7638 49.2843V62.5177H27.2346V49.0581L25.7638 49.2843Z" fill="#3F3D56"/>
<path d="M27.9133 57.4279C27.9133 57.4279 30.7418 68.5123 28.9316 70.0958C28.9316 70.0958 26.5557 63.0832 24.7455 63.9881L25.3112 57.4279H27.9133Z" fill="#36334A"/>
<path d="M38.8876 11.2807C41.3245 11.2807 43.2999 9.30576 43.2999 6.86956C43.2999 4.43336 41.3245 2.45844 38.8876 2.45844C36.4507 2.45844 34.4752 4.43336 34.4752 6.86956C34.4752 9.30576 36.4507 11.2807 38.8876 11.2807Z" fill="#FBBEBE"/>
<path d="M38.0531 13.5554C39.8525 13.861 41.4076 11.7695 43.209 12.0637C43.6007 12.1438 43.9756 12.2913 44.317 12.4995C45.6438 13.25 46.8001 14.2682 47.7121 15.4894C48.6242 16.7107 49.2722 18.1083 49.6149 19.5933C49.8185 20.5005 49.8971 21.4843 49.5139 22.3314C49.3102 22.7817 48.9878 23.1663 48.6655 23.541C47.4671 24.9345 46.1517 26.3231 44.4417 26.9973C44.2747 27.5757 44.435 28.202 44.6353 28.7697C45.4716 31.1402 44.1418 33.695 44.074 36.2076C44.0624 36.6374 44.0753 37.1084 43.8065 37.444C43.508 37.8165 42.9753 37.8827 42.4986 37.9095C38.1298 38.1556 33.7669 37.4855 29.4425 36.8175C29.3293 36.8098 29.22 36.7728 29.1253 36.7102C28.9831 36.5967 28.9616 36.3938 28.9313 36.2144C28.7709 35.265 29.6142 34.4951 29.2144 33.6192C28.527 32.1133 30.0264 30.4665 30.4589 28.8687C30.8914 27.2709 31.0617 26.9899 31.364 25.3624C31.477 24.7539 31.1514 22.9195 31.2508 22.3086C31.5755 20.3132 31.33 18.0404 32.3822 16.314C33.0144 15.2767 32.8503 14.4702 33.9784 14.0192C35.1688 13.5434 36.7797 13.7035 38.0531 13.5554Z" fill="#D7E5F2"/>
<path d="M18.1263 39.8617C16.8091 40.1156 15.4106 40.3578 14.3969 41.2363C13.7778 41.7728 13.3617 42.5 12.9575 43.2124L8.83362 50.4813C7.5759 52.6982 6.31753 54.9163 5.17721 57.1957C5.07756 57.3615 5.0191 57.5487 5.00671 57.7418C5.01127 58.0138 5.19414 58.2476 5.3814 58.4451C6.03197 59.1193 6.83113 59.6323 7.71515 59.943C8.59917 60.2538 9.54359 60.3537 10.4731 60.2349C10.7568 58.7665 12.1529 57.7961 12.8372 56.4662C13.2132 55.7355 13.3643 54.9138 13.607 54.1287C14.5123 51.2004 16.6613 48.849 18.7477 46.6033C19.7337 45.5419 20.7431 44.4621 22.0136 43.7656C23.5041 42.9486 25.2336 42.7225 26.8992 42.3832C28.5648 42.0438 30.2895 41.5293 31.4681 40.3047C31.9684 39.7773 32.3451 39.1452 32.571 38.4543C32.7969 37.7634 32.8664 37.031 32.7744 36.31C31.7073 36.2353 30.5198 36.0966 29.4905 36.4397C28.295 36.8382 27.1387 37.3827 25.9415 37.7898C23.3869 38.6584 20.7757 39.3506 18.1263 39.8617Z" fill="#696880"/>
<path opacity="0.1" d="M18.1263 39.8617C16.8091 40.1156 15.4106 40.3578 14.3969 41.2363C13.7778 41.7728 13.3617 42.5 12.9575 43.2124L8.83362 50.4813C7.5759 52.6982 6.31753 54.9163 5.17721 57.1957C5.07756 57.3615 5.0191 57.5487 5.00671 57.7418C5.01127 58.0138 5.19414 58.2476 5.3814 58.4451C6.03197 59.1193 6.83113 59.6323 7.71515 59.943C8.59917 60.2538 9.54359 60.3537 10.4731 60.2349C10.7568 58.7665 12.1529 57.7961 12.8372 56.4662C13.2132 55.7355 13.3643 54.9138 13.607 54.1287C14.5123 51.2004 16.6613 48.849 18.7477 46.6033C19.7337 45.5419 20.7431 44.4621 22.0136 43.7656C23.5041 42.9486 25.2336 42.7225 26.8992 42.3832C28.5648 42.0438 30.2895 41.5293 31.4681 40.3047C31.9684 39.7773 32.3451 39.1452 32.571 38.4543C32.7969 37.7634 32.8664 37.031 32.7744 36.31C31.7073 36.2353 30.5198 36.0966 29.4905 36.4397C28.295 36.8382 27.1387 37.3827 25.9415 37.7898C23.3869 38.6584 20.7757 39.3506 18.1263 39.8617Z" fill="black"/>
<path d="M0.347025 62.9112C0.200156 63.0163 0.087247 63.1621 0.0222001 63.3306C-0.127578 63.8407 0.511012 64.2001 1.02203 64.3471C2.17018 64.6774 3.3951 65.0084 4.54029 64.668C5.24258 64.4593 5.85371 64.012 6.55144 63.7885C7.58692 63.4569 8.70844 63.6452 9.77882 63.8363C10.018 62.491 9.8571 61.105 9.31608 59.8502C8.97269 59.0583 7.59799 58.6728 6.77953 58.638C5.88488 58.6001 5.57414 59.26 5.05771 59.8674C3.79991 61.3468 1.79614 61.6897 0.347025 62.9112Z" fill="#3F3D56"/>
<path d="M18.967 42.0284C18.334 42.28 17.6849 42.5421 17.1884 43.0083C16.6642 43.5005 16.3573 44.1759 16.0775 44.8382C15.2506 46.7961 14.5466 48.8036 13.9696 50.849C13.6781 51.8826 13.4183 52.928 13.0256 53.9275C12.2418 55.9223 10.9118 57.8327 11.0368 59.9722C11.036 60.2322 11.106 60.4874 11.2392 60.7106C11.4167 60.9682 11.7188 61.1049 12.0058 61.2295L13.5101 61.8825C14.3174 62.2329 15.3025 62.5698 16.0237 62.0656C16.5064 61.7282 16.6992 61.1162 16.8448 60.5457C17.3706 58.4853 17.6955 56.3451 18.6376 54.4387C19.7025 52.2839 21.5029 50.5427 22.4556 48.3361C22.5904 48.0238 22.7183 47.6887 22.9834 47.4756C23.2024 47.2995 23.4863 47.2309 23.7603 47.1685C29.4106 45.8823 35.1882 45.1788 40.7933 43.7081C41.5901 43.499 42.4237 43.2508 42.9922 42.6546C43.7804 41.8281 43.8507 40.5718 43.8759 39.43C43.8917 38.7147 43.8883 37.9374 43.4524 37.37C42.9608 36.73 42.0791 36.561 41.2763 36.4766C38.1975 36.1528 35.3577 36.6628 32.3253 37.0364C29.5508 37.3782 26.7564 38.9438 24.168 39.9667C22.4336 40.6521 20.7 41.3393 18.967 42.0284Z" fill="#696880"/>
<path d="M12.0051 62.4759C11.5819 63.4804 11.1253 64.5296 10.2671 65.2017C9.90858 65.4825 9.44482 65.7636 9.43051 66.2187C9.41537 66.7002 9.92118 67.018 10.3745 67.1815C11.5289 67.5978 12.8427 67.6869 13.969 67.1996C14.7394 66.8664 15.3747 66.2905 15.9947 65.7248C16.1815 65.5544 16.3747 65.3745 16.4622 65.1374C16.5219 64.9375 16.5398 64.7276 16.5148 64.5206C16.4405 63.264 16.2163 62.0209 15.847 60.8175C15.8184 60.7229 13.3841 60.4195 13.1682 60.4759C12.4886 60.6533 12.2672 61.8537 12.0051 62.4759Z" fill="#3F3D56"/>
<path d="M49.862 33.3364L35.1541 33.7888C35.1541 33.7888 22.1433 46.4566 32.8914 50.3022C32.8914 50.3022 46.1284 52.4513 49.2963 49.9629C49.2963 49.9629 53.2561 34.3543 49.862 33.3364ZM49.1832 37.5213L33.4571 38.5392C33.4571 38.5392 34.5884 34.6936 39.1139 34.6936C43.6394 34.6936 48.7306 33.6757 49.1832 36.0509C49.6357 38.4261 49.1832 37.5213 49.1832 37.5213Z" fill="#3F3D56"/>
<path d="M46.5244 73.9413C54.6786 73.9413 61.2889 66.4467 61.2889 57.2017C61.2889 47.9566 54.6786 40.462 46.5244 40.462C38.3703 40.462 31.76 47.9566 31.76 57.2017C31.76 66.4467 38.3703 73.9413 46.5244 73.9413Z" fill="#36334A"/>
<path d="M47.2032 69.6434C53.3579 69.6434 58.3473 64.073 58.3473 57.2017C58.3473 50.3304 53.3579 44.7601 47.2032 44.7601C41.0486 44.7601 36.0592 50.3304 36.0592 57.2017C36.0592 64.073 41.0486 69.6434 47.2032 69.6434Z" fill="#3F3D56"/>
<path d="M50.0883 57.032C50.088 56.815 50.0664 56.5985 50.0237 56.3857L58.3474 52.225L57.7817 50.9809L49.3735 55.076C49.2887 54.9888 49.1951 54.9106 49.0941 54.8427L49.1006 54.8441L51.5591 42.611L49.3844 42.5616L47.9387 54.6003L48.0773 54.6294C47.965 54.6524 47.856 54.6897 47.7531 54.7401L40.4812 47.2778L39.4534 48.7188L46.9247 55.5905C46.7374 55.9502 46.6249 56.3442 46.5939 56.7486L36.0593 61.0473L35.833 62.857L46.8141 58.2401C46.9166 58.494 47.0617 58.7285 47.2433 58.9335L43.8658 70.4351H45.1103L47.9454 59.4016C48.0712 59.4421 48.2025 59.4631 48.3347 59.4638C48.59 59.4615 48.8393 59.3868 49.0538 59.2483L54.9532 67.0419L56.7634 65.7977L49.8511 58.2495C50.0098 57.8633 50.0904 57.4495 50.0883 57.032Z" fill="#36334A"/>
<path d="M33.76 4.07687C33.9593 3.57651 34.6021 3.36954 34.8126 2.87379C35.039 2.34061 34.6841 1.66223 34.9922 1.17166C35.3026 0.67739 36.026 0.735312 36.6019 0.830809C37.2817 0.943544 38.0048 1.01936 38.6389 0.749654C38.921 0.629705 39.1713 0.446542 39.4444 0.307573C39.8787 0.0874386 40.3621 -0.0176315 40.8485 0.00241386C40.9583 -9.29492e-05 41.0668 0.0257937 41.1636 0.0775629C41.2557 0.143993 41.3266 0.235558 41.368 0.341281C41.5663 0.770825 41.5946 1.30696 41.9538 1.61506C42.1263 1.76305 42.3501 1.83279 42.5567 1.92755C43.0379 2.15971 43.4362 2.53387 43.698 2.99952C43.9597 3.46517 44.0722 3.99988 44.0203 4.53149C43.9731 4.77767 43.9433 5.0269 43.9313 5.27729C43.9454 5.82728 44.305 6.37669 44.1213 6.89531C43.9848 7.28079 43.5853 7.50896 43.1939 7.62781C43.0826 7.67305 42.9592 7.67929 42.8439 7.64551C42.6431 7.56418 42.6031 7.30627 42.5389 7.09939C42.4483 6.82852 42.2735 6.59369 42.0399 6.42916C41.8064 6.26463 41.5264 6.17902 41.2407 6.18482C40.7843 6.2042 40.3226 6.46045 39.892 6.30799C39.6804 6.23307 39.5148 6.06955 39.3457 5.92201C38.9565 5.58247 38.4961 5.29999 37.9846 5.22771C37.4731 5.15544 36.9064 5.32787 36.6052 5.74742C36.4836 5.91686 36.4099 6.11633 36.2938 6.28966C35.251 7.84699 33.3295 5.1575 33.76 4.07687Z" fill="#36334A"/>
<path d="M34.3055 34.1846H26.499V42.8938H34.3055V34.1846Z" fill="#FCCCB6"/>
<path d="M36.1109 30.9596C35.9173 30.9345 35.7205 30.9569 35.5375 31.0251C35.3545 31.0932 35.1909 31.2049 35.0608 31.3505C34.0708 32.2522 33.0215 33.2686 32.8421 34.5955C32.8146 34.7164 32.8291 34.8431 32.8831 34.9547C32.9785 35.1107 33.188 35.1453 33.3709 35.1484C33.8335 35.153 34.2917 35.0587 34.7149 34.8719C35.1381 34.6851 35.5164 34.41 35.8246 34.065C35.9944 33.8724 36.1502 33.652 36.383 33.5435C36.5958 33.4643 36.8242 33.436 37.0498 33.4608C37.6709 33.4811 39.0891 33.7989 39.6307 33.4909C40.2001 33.1671 40.0435 32.1518 39.7776 31.6623C39.1457 30.4987 37.1866 30.948 36.1109 30.9596Z" fill="#FBBEBE"/>
<path d="M49.9298 21.1876C50.3102 22.411 50.0874 23.789 50.6264 24.9514C50.9842 25.7229 51.6569 26.3449 51.8653 27.1694C52.0622 27.9485 51.7985 28.7881 51.3358 29.4453C50.8732 30.1025 50.2291 30.6072 49.5831 31.0854C48.8757 31.6091 48.1411 32.1202 47.3077 32.4034C46.4764 32.6858 45.5856 32.7285 44.7085 32.7687L38.8952 33.0352L37.8246 29.8263L41.6124 28.343C41.9915 28.1945 42.3778 28.0444 42.7838 28.0144C43.4849 27.9625 44.34 28.2198 44.7903 27.6801C44.9333 27.4817 45.0243 27.2507 45.0548 27.0081C45.4221 25.1229 45.1025 23.1283 45.668 21.2928C45.9478 20.3843 46.7554 18.5619 47.8568 18.4015C49.024 18.2316 49.6658 20.3387 49.9298 21.1876Z" fill="#D7E5F2"/>
</svg>
